<?xml version="1.0" standalone="no"?>
<!DOCTYPE svg PUBLIC "-//W3C//DTD SVG 1.1//EN" "http://www.w3.org/Graphics/SVG/1.1/DTD/svg11.dtd" >
<svg xmlns="http://www.w3.org/2000/svg">
<metadata></metadata>
<defs>
<font id="ca_sansregular" horiz-adv-x="1228" >
<font-face units-per-em="2048" ascent="1536" descent="-512" />
<missing-glyph horiz-adv-x="389" />
<glyph unicode="&#xfb01;" horiz-adv-x="1081" d="M51 819v164h166v211q0 150 73.5 223.5t235.5 73.5h103v-164h-88q-73 0 -105.5 -31t-32.5 -106v-207h555v-983h-186v819h-369v-819h-186v819h-166zM733 1325q0 54 38 91.5t93 37.5t93 -37.5t38 -91.5t-38 -92.5t-93 -38.5t-93 38.5t-38 92.5z" />
<glyph unicode="&#xfb02;" horiz-adv-x="1107" d="M51 819v164h166v211q0 151 72.5 224t236.5 73h109v-164h-94q-77 0 -107.5 -30.5t-30.5 -106.5v-207h232v-164h-232v-819h-186v819h-166zM799 0v1491h186v-1491h-186z" />
<glyph horiz-adv-x="0" />
<glyph horiz-adv-x="682" />
<glyph unicode=" "  horiz-adv-x="389" />
<glyph unicode="&#x09;" horiz-adv-x="389" />
<glyph unicode="&#xa0;" horiz-adv-x="389" />
<glyph unicode="!" horiz-adv-x="561" d="M143 119q0 57 40.5 97t97.5 40t97 -40t40 -97t-40 -97t-97 -40t-97.5 40t-40.5 97zM164 1454h233l-53 -1018h-127z" />
<glyph unicode="&#x22;" horiz-adv-x="821" d="M102 1360q0 50 30.5 80t82.5 30t83.5 -31t31.5 -79q0 -24 -6 -62l-56 -364h-104l-55 362q-7 44 -7 64zM492 1360q0 50 30 80t82 30t83.5 -31t31.5 -79q0 -24 -6 -62l-56 -364h-104l-55 362q-6 38 -6 64z" />
<glyph unicode="#" d="M20 346v166h218l79 373h-182v166h217l74 342h180l-74 -342h297l74 342h180l-73 -342h198v-166h-233l-80 -373h199v-166h-236l-74 -346h-180l74 346h-297l-74 -346h-180l74 346h-181zM418 512h297l80 373h-297z" />
<glyph unicode="$" horiz-adv-x="1163" d="M61 279l168 81q58 -85 121 -133.5t156 -64.5v485q-116 32 -194 72t-120 90t-58.5 103t-16.5 122q0 147 107.5 252.5t281.5 128.5v182h147v-180q137 -12 234.5 -68.5t173.5 -160.5l-143 -111q-67 77 -126 113.5t-139 46.5v-444q243 -67 335.5 -156.5t92.5 -253.5 q0 -158 -118.5 -273.5t-307.5 -134.5v-180h-149v182q-149 15 -255 88t-190 214zM307 1034q0 -77 48 -121t151 -77v399q-92 -17 -145.5 -72.5t-53.5 -128.5zM655 158q111 12 173.5 73t62.5 150q0 53 -16.5 91t-50.5 63.5t-72.5 41t-96.5 31.5v-450z" />
<glyph unicode="%" horiz-adv-x="1646" d="M102 1098q0 132 92.5 221.5t225.5 89.5q134 0 226.5 -89t92.5 -222q0 -134 -92.5 -224t-226.5 -90q-133 0 -225.5 90t-92.5 224zM221 0l979 1393h180l-979 -1393h-180zM246 1098q0 -78 49 -128t125 -50q78 0 127 50t49 128q0 77 -49 126.5t-127 49.5q-76 0 -125 -49.5 t-49 -126.5zM907 297q0 132 92.5 221.5t225.5 89.5q134 0 226.5 -89t92.5 -222q0 -134 -92.5 -223.5t-226.5 -89.5q-133 0 -225.5 89.5t-92.5 223.5zM1051 297q0 -78 49 -128t125 -50q78 0 127 50t49 128q0 77 -49 126.5t-127 49.5q-76 0 -125 -49.5t-49 -126.5z" />
<glyph unicode="&#x26;" horiz-adv-x="1421" d="M61 373q0 140 90.5 243t270.5 191q-72 87 -110 165.5t-38 168.5q0 150 103 244t276 94q172 0 275.5 -94.5t103.5 -249.5q0 -113 -73.5 -196.5t-264.5 -176.5l248 -283l92 121q50 65 91.5 89t105.5 24h123v-160h-66q-37 0 -64.5 -15.5t-60.5 -56.5l-104 -137l301 -344 h-230l-180 205q-90 -111 -189.5 -171.5t-246.5 -60.5q-203 0 -328 113.5t-125 286.5zM256 377q0 -102 70.5 -166t191.5 -64q55 0 99.5 13t83 41t67.5 58.5t66 78.5l-304 344q-146 -72 -210 -143t-64 -162zM457 1143q0 -61 31 -118.5t100 -139.5q152 71 208 125.5t56 128.5 q0 86 -55 135t-144 49q-92 0 -144 -50t-52 -130z" />
<glyph unicode="'" horiz-adv-x="432" d="M102 1360q0 50 30.5 80t82.5 30t83.5 -31t31.5 -79q0 -24 -6 -62l-56 -364h-104l-55 362q-7 44 -7 64z" />
<glyph unicode="(" horiz-adv-x="735" d="M102 649q0 594 412 977l119 -113q-352 -343 -352 -864t352 -864l-119 -113q-412 383 -412 977z" />
<glyph unicode=")" horiz-adv-x="735" d="M102 -215q353 344 353 864t-353 864l119 113q412 -383 412 -977t-412 -977z" />
<glyph unicode="*" horiz-adv-x="860" d="M82 1149l45 133l227 -80v252h150v-252l229 80l45 -133l-235 -78l155 -197l-112 -88l-158 205l-147 -203l-113 89l149 194z" />
<glyph unicode="+" d="M102 551v168h428v428h168v-428h428v-168h-428v-428h-168v428h-428z" />
<glyph unicode="," horiz-adv-x="489" d="M102 119q0 59 40.5 98t97.5 39q66 0 111.5 -51t45.5 -156q0 -136 -61.5 -220.5t-192.5 -84.5h-24v111h20q118 0 127 127q-69 -6 -116.5 34t-47.5 103z" />
<glyph unicode="-" horiz-adv-x="727" d="M82 434v180h563v-180h-563z" />
<glyph unicode="." horiz-adv-x="483" d="M102 121q0 58 40.5 98.5t99.5 40.5q58 0 98.5 -40t40.5 -99t-40.5 -99t-98.5 -40q-59 0 -99.5 40.5t-40.5 98.5z" />
<glyph unicode="/" horiz-adv-x="899" d="M41 0l635 1454h182l-635 -1454h-182z" />
<glyph unicode="0" d="M76 696q0 150 34 279.5t99.5 229t169.5 157t235 57.5q130 0 234 -57.5t169.5 -157t100.5 -229.5t35 -279t-35 -279t-100.5 -229.5t-169.5 -157t-234 -57.5q-131 0 -235 57.5t-169.5 157t-99.5 229t-34 279.5zM270 696q0 -158 34.5 -278.5t113.5 -195.5t196 -75 q116 0 195 75t114 195.5t35 278.5q0 157 -35 277.5t-114 196t-195 75.5q-117 0 -196 -75.5t-113.5 -196t-34.5 -277.5z" />
<glyph unicode="1" horiz-adv-x="825" d="M113 1059v133l84 14q94 15 124.5 41t30.5 96v50h187v-1393h-187v1059h-239z" />
<glyph unicode="2" horiz-adv-x="1091" d="M61 0v74q0 89 25.5 165.5t68.5 132t99 103.5t118 87t124 76t118 76t99 81t68.5 98t25.5 121q0 103 -62 167t-178 64q-113 0 -186 -60t-129 -220l-176 51q62 214 183.5 308.5t303.5 94.5q202 0 320 -115.5t118 -291.5q0 -99 -38.5 -182.5t-101 -143t-138.5 -111.5 t-153.5 -97.5t-143.5 -89t-111.5 -98.5t-54.5 -116h737v-174h-936z" />
<glyph unicode="3" horiz-adv-x="1079" d="M31 240l157 108q68 -102 147.5 -150t192.5 -48q129 0 205 73t76 183q0 239 -338 239q-67 0 -125 -8v151l127 19q148 21 219.5 76t71.5 168q0 88 -65.5 141t-170.5 53q-97 0 -170 -39.5t-135 -115.5l-139 102q73 108 190 167.5t256 59.5q189 0 308.5 -96.5t119.5 -259.5 q0 -112 -57 -194.5t-170 -127.5q133 -38 203 -125t70 -215q0 -81 -32.5 -157t-91.5 -136t-150.5 -96t-201.5 -37q-320 -3 -497 265z" />
<glyph unicode="4" horiz-adv-x="1181" d="M92 313v154l479 926h201l-475 -916h385q45 0 62.5 13t17.5 51v340h182v-404h186v-164h-186v-313h-182v313h-670z" />
<glyph unicode="5" horiz-adv-x="1091" d="M41 240l160 108q66 -103 145.5 -152t190.5 -49q128 0 203 79t75 200t-80 200t-217 79q-151 0 -233 -74l-164 82l115 680h702v-174h-496q-40 0 -54.5 -11.5t-20.5 -46.5l-62 -350q99 63 240 63q213 0 339 -128t126 -324q0 -85 -32 -165t-90.5 -143t-149.5 -101.5 t-201 -39.5q-326 -3 -496 267z" />
<glyph unicode="6" horiz-adv-x="1134" d="M86 594q0 172 41 311t107 228t155 149t180 85t187 26h231v-174h-201q-101 0 -186.5 -31t-153.5 -92t-111 -161t-54 -230q46 69 134.5 115t213.5 46q136 0 237.5 -60.5t152 -159.5t50.5 -222t-53 -224t-160 -164t-250 -63q-110 0 -198.5 32t-148 88t-99 135t-57 170 t-17.5 196zM305 424q0 -118 75.5 -197.5t209.5 -79.5q132 0 208 78.5t76 198.5t-75 198t-207 78t-209.5 -80.5t-77.5 -195.5z" />
<glyph unicode="7" horiz-adv-x="1024" d="M51 1219v174h912v-80q0 -84 -28.5 -175t-74 -175.5t-101 -174t-110.5 -183t-100.5 -187.5t-74 -203t-28.5 -215h-206q0 104 26 209t68.5 196.5t95 180.5t108 172.5t104 159.5t86.5 155t52 146h-729z" />
<glyph unicode="8" horiz-adv-x="1142" d="M76 391q0 116 60.5 205.5t172.5 138.5q-88 48 -137 128t-49 181q0 160 121.5 267.5t326.5 107.5t326 -107.5t121 -267.5q0 -101 -49 -181.5t-138 -127.5q114 -47 175 -137t61 -207q0 -88 -32 -163t-92.5 -132.5t-156 -90t-215.5 -32.5t-215.5 32.5t-155.5 90t-92 132.5 t-32 163zM270 401q0 -110 80.5 -182t220.5 -72q139 0 220 72.5t81 181.5q0 108 -80.5 179t-220.5 71t-220.5 -71t-80.5 -179zM317 1028q0 -102 69 -163.5t185 -61.5t184 61.5t68 163.5q0 100 -68 160.5t-184 60.5t-185 -60.5t-69 -160.5z" />
<glyph unicode="9" horiz-adv-x="1134" d="M66 969q0 123 53 224t159.5 163.5t249.5 62.5q137 0 239.5 -48t163 -134.5t89.5 -195.5t29 -242q0 -172 -41 -311t-107 -228t-155 -149t-180 -85t-187 -26h-232v174h201q101 0 187 31t154 92t111 161t54 230q-47 -69 -135 -115.5t-213 -46.5q-136 0 -237.5 60.5t-152 160 t-50.5 222.5zM260 969q0 -120 75.5 -198.5t207.5 -78.5t209 81t77 196q0 118 -75 197t-209 79q-133 0 -209 -78t-76 -198z" />
<glyph unicode=":" horiz-adv-x="544" d="M133 121q0 59 40.5 99t98.5 40q59 0 99.5 -40.5t40.5 -98.5t-40.5 -98.5t-99.5 -40.5q-58 0 -98.5 40t-40.5 99zM133 854q0 58 40.5 98.5t98.5 40.5q59 0 99.5 -40.5t40.5 -98.5t-40.5 -98.5t-99.5 -40.5q-58 0 -98.5 40.5t-40.5 98.5z" />
<glyph unicode=";" horiz-adv-x="550" d="M133 119q0 59 40 98t97 39q66 0 112 -51t46 -156q0 -136 -61.5 -220.5t-192.5 -84.5h-24v111h20q118 0 127 127q-69 -6 -116.5 34t-47.5 103zM133 854q0 58 40.5 98.5t98.5 40.5q59 0 99.5 -40.5t40.5 -98.5t-40.5 -98.5t-99.5 -40.5q-58 0 -98.5 40.5t-40.5 98.5z" />
<glyph unicode="&#x3c;" d="M123 551v168l983 368v-174l-774 -278l774 -279v-174z" />
<glyph unicode="=" d="M102 346v168h1024v-168h-1024zM102 756v168h1024v-168h-1024z" />
<glyph unicode="&#x3e;" d="M123 182v174l774 279l-774 278v174l983 -368v-168z" />
<glyph unicode="?" horiz-adv-x="1028" d="M61 1122q66 185 183.5 271t290.5 86q198 0 315 -109.5t117 -271.5q0 -73 -21.5 -135.5t-57 -107t-78 -84t-86.5 -75t-81 -71t-63 -80.5t-31 -96l-4 -43h-172v65q0 65 22 120t57 95.5t77.5 77t85.5 71.5t78 71.5t57 85t22 104.5q0 90 -58 147t-175 57q-105 0 -174.5 -52 t-124.5 -189zM324 119q0 57 40 97t97 40t97 -40t40 -97t-40 -97t-97 -40t-97 40t-40 97z" />
<glyph unicode="@" horiz-adv-x="1812" d="M113 502q0 168 58.5 313.5t162 249.5t252 163.5t323.5 59.5q233 0 413 -89t279 -250t99 -369q0 -220 -96.5 -349t-235.5 -129q-66 0 -114.5 14t-75.5 40.5t-41 52.5t-23 61q-104 -168 -293 -168q-151 0 -239 96t-88 261q0 81 25 159.5t72 144.5t125 107t175 41 q178 0 246 -149l14 135h156l-54 -502q-9 -88 15 -134t92 -46q81 0 136.5 90.5t55.5 274.5q0 277 -174.5 427t-468.5 150q-189 0 -337 -83.5t-230 -233t-82 -338.5q0 -289 177 -460t485 -171h450v-131h-450q-185 0 -337 55.5t-255.5 155.5t-160 241t-56.5 310zM664 459 q0 -106 45.5 -161.5t134.5 -55.5q59 0 105.5 23t74.5 58t46 81.5t25 89t7 84.5q0 95 -49 145.5t-140 50.5q-63 0 -112.5 -28.5t-78.5 -75.5t-43.5 -101t-14.5 -110z" />
<glyph unicode="A" horiz-adv-x="1314" d="M25 0l512 1454h241l512 -1454h-200l-127 371h-613l-127 -371h-198zM410 545h493l-246 721z" />
<glyph unicode="B" horiz-adv-x="1241" d="M143 0v1454h529q123 0 220.5 -41.5t156.5 -128t59 -205.5q0 -114 -51.5 -193t-143.5 -122q112 -38 176 -126t64 -220q0 -192 -119 -305t-317 -113h-574zM338 170h334q137 0 209.5 67.5t72.5 184.5q0 116 -72.5 182t-209.5 66h-334v-500zM338 836h326q119 0 184 60.5 t65 166.5q0 107 -64.5 164t-184.5 57h-326v-448z" />
<glyph unicode="C" horiz-adv-x="1368" d="M78 727q0 215 79 385.5t227.5 269.5t342.5 99q206 0 352 -102t221 -298l-180 -57q-72 153 -161 216t-232 63q-203 0 -327 -160.5t-124 -415.5q0 -256 124 -415.5t327 -159.5q149 0 237 67t171 244l176 -66q-99 -227 -233 -325.5t-351 -98.5q-194 0 -342.5 99 t-227.5 269.5t-79 385.5z" />
<glyph unicode="D" horiz-adv-x="1359" d="M143 0v1454h506q202 0 346 -92t215.5 -254.5t71.5 -380.5t-71.5 -380.5t-215.5 -254.5t-346 -92h-506zM338 174h280q228 0 346.5 144.5t118.5 408.5q0 262 -118.5 407.5t-346.5 145.5h-280v-1106z" />
<glyph unicode="E" horiz-adv-x="1153" d="M143 0v1454h881v-174h-686v-440h655v-174h-655v-492h696v-174h-891z" />
<glyph unicode="F" horiz-adv-x="1105" d="M143 0v1454h881v-174h-686v-461h655v-174h-655v-645h-195z" />
<glyph unicode="G" horiz-adv-x="1480" d="M78 727q0 215 80 385.5t231 269.5t348 99q409 0 580 -387l-182 -60q-73 142 -164.5 205.5t-233.5 63.5q-208 0 -334.5 -160.5t-126.5 -415.5q0 -256 126.5 -415.5t334.5 -159.5q178 0 301 106t123 279v63h-426v174h613v-774h-138l-36 170q-153 -197 -437 -197 q-197 0 -348 99t-231 269.5t-80 385.5z" />
<glyph unicode="H" horiz-adv-x="1382" d="M143 0v1454h195v-618h706v618h195v-1454h-195v662h-706v-662h-195z" />
<glyph unicode="I" horiz-adv-x="481" d="M143 0v1454h195v-1454h-195z" />
<glyph unicode="J" horiz-adv-x="827" d="M61 0v174h287q79 0 114.5 33.5t35.5 114.5v1132h194v-1137q0 -158 -82.5 -237.5t-253.5 -79.5h-295z" />
<glyph unicode="K" horiz-adv-x="1226" d="M143 0v1454h195v-674l606 674h246l-516 -567l532 -887h-221l-444 739l-125 -137q-46 -54 -62 -92t-16 -115v-395h-195z" />
<glyph unicode="L" horiz-adv-x="1024" d="M143 0v1454h195v-1280h635v-174h-830z" />
<glyph unicode="M" horiz-adv-x="1724" d="M143 0v1454h277l450 -1208l435 1208h276v-1454h-195v1167l-419 -1167h-193l-436 1161v-1161h-195z" />
<glyph unicode="N" horiz-adv-x="1443" d="M143 0v1454h211l752 -1145v1145h194v-1454h-210l-752 1145v-1145h-195z" />
<glyph unicode="O" horiz-adv-x="1515" d="M78 727q0 215 82.5 385.5t238 269.5t359.5 99t359.5 -99t238 -269.5t82.5 -385.5t-82.5 -385.5t-238 -269.5t-359.5 -99t-359.5 99t-238 269.5t-82.5 385.5zM276 727q0 -256 132.5 -415.5t349.5 -159.5t349 159.5t132 415.5q0 255 -132 415.5t-349 160.5t-349.5 -160.5 t-132.5 -415.5z" />
<glyph unicode="P" horiz-adv-x="1222" d="M143 0v1454h537q207 0 336 -124t129 -329t-129 -328.5t-336 -123.5h-342v-549h-195zM338 723h313q295 0 295 278q0 135 -73 207t-222 72h-313v-557z" />
<glyph unicode="Q" horiz-adv-x="1515" d="M78 727q0 215 82.5 385.5t238 269.5t359.5 99t359.5 -99t238 -269.5t82.5 -385.5q0 -230 -96 -409.5t-267 -270.5q28 -62 65 -82t130 -20h100v-164h-135q-139 0 -212 44.5t-124 160.5q-73 -13 -141 -13q-204 0 -359.5 99t-238 269.5t-82.5 385.5zM276 727 q0 -256 132.5 -415.5t349.5 -159.5q36 0 73 6l-116 293h200l91 -230q111 71 172 203t61 303q0 255 -132 415.5t-349 160.5t-349.5 -160.5t-132.5 -415.5z" />
<glyph unicode="R" horiz-adv-x="1251" d="M143 0v1454h535q206 0 335.5 -121t129.5 -317q0 -142 -77 -246t-210 -152l365 -618h-215l-277 471q-30 51 -50 72.5t-58 34t-105 12.5h-178v-590h-195zM338 754h309q149 0 223 68.5t74 193.5t-74 194.5t-223 69.5h-309v-526z" />
<glyph unicode="S" horiz-adv-x="1136" d="M47 299l172 86q35 -57 66 -94t74 -71t98.5 -50t126.5 -16q136 0 212 69t76 178q0 36 -9 66t-22.5 52.5t-39.5 42t-49.5 32.5t-63.5 26.5t-70.5 22t-80.5 21.5q-131 33 -218 75t-134.5 95t-66 109.5t-18.5 131.5q0 173 133 289.5t338 116.5q164 0 277 -63t199 -189 l-148 -115q-82 105 -152.5 147t-185.5 42q-122 0 -194 -66t-72 -162q0 -40 15.5 -73t41.5 -57t70.5 -45.5t92 -37.5t116.5 -35q247 -67 341.5 -160.5t94.5 -263.5q0 -181 -137.5 -305.5t-349.5 -124.5q-187 0 -313 77.5t-220 248.5z" />
<glyph unicode="T" horiz-adv-x="1218" d="M61 1280v174h1096v-174h-450v-1280h-195v1280h-451z" />
<glyph unicode="U" horiz-adv-x="1347" d="M135 520v934h199v-926q0 -189 81.5 -282.5t258.5 -93.5t258.5 93.5t81.5 282.5v926h198v-934q0 -547 -538 -547q-539 0 -539 547z" />
<glyph unicode="V" horiz-adv-x="1290" d="M25 1454h200l422 -1235l420 1235h199l-504 -1454h-234z" />
<glyph unicode="W" horiz-adv-x="1933" d="M49 1454h199l280 -1233l340 1233h197l340 -1233l283 1233h196l-356 -1454h-238l-323 1157l-324 -1157h-237z" />
<glyph unicode="X" horiz-adv-x="1275" d="M25 0l497 760l-459 694h220l356 -547l354 547h219l-458 -696l497 -758h-219l-395 606l-393 -606h-219z" />
<glyph unicode="Y" horiz-adv-x="1187" d="M14 1454h211l371 -645l369 645h209l-484 -829v-625h-194v627z" />
<glyph unicode="Z" horiz-adv-x="1269" d="M102 0v174l832 1106h-811v174h1044v-174l-831 -1106h831v-174h-1065z" />
<glyph unicode="[" horiz-adv-x="710" d="M184 -299v1903h424v-150h-248v-1606h248v-147h-424z" />
<glyph unicode="\" horiz-adv-x="899" d="M41 1454h182l635 -1454h-182z" />
<glyph unicode="]" horiz-adv-x="706" d="M98 -152h248v1606h-248v150h424v-1903h-424v147z" />
<glyph unicode="^" d="M121 573l409 881h168l410 -881h-174l-320 680l-319 -680h-174z" />
<glyph unicode="_" horiz-adv-x="1024" d="M-10 -135h1044v-160h-1044v160z" />
<glyph unicode="`" horiz-adv-x="667" d="M123 1454h229l193 -289h-185z" />
<glyph unicode="a" horiz-adv-x="1019" d="M74 268q0 67 22 116.5t67 82t98.5 52.5t129.5 36l199 41q66 13 93.5 35t27.5 74q0 70 -51.5 109.5t-141.5 39.5q-86 0 -145 -36.5t-123 -137.5l-154 82q36 58 74 100.5t88.5 77.5t115.5 52.5t144 17.5q180 0 279.5 -90t99.5 -234v-686h-178v137q-45 -68 -129 -109.5 t-195 -41.5q-142 0 -231.5 78.5t-89.5 203.5zM264 276q0 -61 45 -95t131 -34q113 0 192 59.5t79 151.5v140l-267 -70q-96 -25 -138 -60t-42 -92z" />
<glyph unicode="b" horiz-adv-x="1124" d="M123 0v1491h186v-660q112 179 322 179q196 0 311 -142.5t115 -375.5t-115 -376t-311 -143q-225 0 -332 197v-170h-176zM309 492q0 -163 80 -257t209 -94q125 0 196.5 93t71.5 258t-71.5 257.5t-196.5 92.5q-129 0 -209 -93.5t-80 -256.5z" />
<glyph unicode="c" horiz-adv-x="1007" d="M66 492q0 243 130 380.5t343 137.5q298 0 409 -285l-168 -49q-49 92 -104.5 129t-143.5 37q-139 0 -207.5 -98.5t-68.5 -251.5q0 -73 15.5 -134t47 -111t86 -78t127.5 -28q95 0 149 38.5t107 150.5l168 -56q-73 -168 -173.5 -234.5t-243.5 -66.5q-213 0 -343 138 t-130 381z" />
<glyph unicode="d" horiz-adv-x="1122" d="M66 492q0 233 115 375.5t311 142.5q209 0 321 -179v660h186v-1491h-176v170q-107 -197 -331 -197q-196 0 -311 143t-115 376zM256 492q0 -165 71.5 -258t196.5 -93q129 0 209 94t80 257t-80 256.5t-209 93.5q-125 0 -196.5 -92.5t-71.5 -257.5z" />
<glyph unicode="e" horiz-adv-x="1028" d="M66 492q0 234 124 375t330 141q204 0 322.5 -134.5t118.5 -381.5v-35h-637q-31 0 -44.5 -13t-13.5 -43q0 -31 7.5 -63.5t27 -68.5t49 -64t76.5 -46t106 -18q90 0 146.5 35t112.5 137l155 -73q-80 -153 -177.5 -210t-236.5 -57q-214 0 -340 140t-126 379zM262 602h506 q-13 117 -77.5 180.5t-166.5 63.5q-224 0 -262 -244z" />
<glyph unicode="f" horiz-adv-x="696" d="M51 819v164h166v211q0 150 73.5 223.5t235.5 73.5h181v-164h-166q-73 0 -105.5 -31t-32.5 -106v-207h232v-164h-232v-819h-186v819h-166z" />
<glyph unicode="g" horiz-adv-x="1087" d="M66 522q0 222 118 355t291 133q210 0 311 -160v133h179v-963q0 -206 -117 -313.5t-320 -107.5q-161 0 -262.5 66.5t-171.5 205.5l162 78q50 -96 113.5 -143.5t160.5 -47.5q116 0 182 63.5t66 196.5v162q-104 -145 -303 -145q-173 0 -291 132.5t-118 354.5zM256 522 q0 -151 73 -235t187 -84q123 0 192.5 79t69.5 240t-69.5 240.5t-192.5 79.5q-114 0 -187 -84.5t-73 -235.5z" />
<glyph unicode="h" horiz-adv-x="1071" d="M123 0v1491h186v-635q106 152 295 152q164 0 258 -109.5t94 -280.5v-618h-186v594q0 115 -56 180.5t-163 65.5q-108 0 -175 -67.5t-67 -180.5v-592h-186z" />
<glyph unicode="i" horiz-adv-x="432" d="M84 1321q0 54 38 91.5t93 37.5t93 -37.5t38 -91.5t-38 -92.5t-93 -38.5t-93 38.5t-38 92.5zM123 0v983h186v-983h-186z" />
<glyph unicode="j" horiz-adv-x="432" d="M-115 -225h99q73 0 106 31t33 106v1071h186v-1075q0 -151 -73 -224t-234 -73h-117v164zM86 1321q0 54 38 91.5t93 37.5t93 -37.5t38 -91.5t-38 -92.5t-93 -38.5t-93 38.5t-38 92.5z" />
<glyph unicode="k" horiz-adv-x="960" d="M123 0v1495h186v-946l385 434h219l-319 -356l346 -627h-197l-270 492l-98 -109q-40 -43 -53 -77t-13 -105v-201h-186z" />
<glyph unicode="l" horiz-adv-x="432" d="M123 0v1491h186v-1491h-186z" />
<glyph unicode="m" horiz-adv-x="1570" d="M123 0v983h178v-121q82 146 260 146q96 0 167.5 -41t111.5 -117q101 158 293 158q146 0 234.5 -97.5t88.5 -259.5v-651h-186v623q0 102 -46 159.5t-137 57.5t-147.5 -60t-56.5 -159v-621h-187v623q0 102 -45.5 159.5t-136.5 57.5t-148 -60t-57 -159v-621h-186z" />
<glyph unicode="n" horiz-adv-x="1071" d="M123 0v983h176v-143q103 168 305 168q164 0 258 -109.5t94 -280.5v-618h-186v594q0 115 -56 180.5t-163 65.5q-108 0 -175 -67.5t-67 -180.5v-592h-186z" />
<glyph unicode="o" horiz-adv-x="1091" d="M66 492q0 232 135 375t344 143t344 -143t135 -375t-135 -375.5t-344 -143.5t-344 143.5t-135 375.5zM256 492q0 -163 79.5 -257t209.5 -94t209.5 94t79.5 257t-79.5 256.5t-209.5 93.5t-209.5 -93.5t-79.5 -256.5z" />
<glyph unicode="p" horiz-adv-x="1124" d="M123 -389v1372h176v-162q110 189 332 189q196 0 311 -142.5t115 -375.5t-115 -376t-311 -143q-211 0 -322 170v-532h-186zM309 492q0 -163 80 -257t209 -94q126 0 197 92.5t71 258.5q0 165 -71 257.5t-197 92.5q-129 0 -209 -93.5t-80 -256.5z" />
<glyph unicode="q" horiz-adv-x="1122" d="M66 492q0 233 115 375.5t311 142.5q221 0 331 -189v162h176v-1372h-186v532q-111 -170 -321 -170q-196 0 -311 143t-115 376zM256 492q0 -166 71 -258.5t197 -92.5q129 0 209 94t80 257t-80 256.5t-209 93.5q-126 0 -197 -92.5t-71 -257.5z" />
<glyph unicode="r" horiz-adv-x="718" d="M123 0v983h178v-160q82 168 258 168h117v-180h-103q-131 0 -197.5 -65.5t-66.5 -188.5v-557h-186z" />
<glyph unicode="s" horiz-adv-x="884" d="M41 211l152 88q54 -82 111.5 -121t148.5 -39q85 0 132.5 37.5t47.5 104.5q0 46 -30 75.5t-61.5 40.5t-110.5 30q-7 2 -11 3q-193 46 -266.5 111t-73.5 176q0 129 100 211t256 82q126 0 215 -46.5t154 -138.5l-133 -104q-55 71 -112.5 99t-131.5 28q-80 0 -124 -34 t-44 -91q0 -55 45 -80t176 -57q186 -45 259 -111.5t73 -185.5q0 -140 -104.5 -227t-259.5 -87q-147 0 -238.5 54t-169.5 182z" />
<glyph unicode="t" horiz-adv-x="716" d="M51 819v164h74q54 0 73 19t19 73v211h186v-303h232v-164h-232v-518q0 -75 33 -106t107 -31h112v-164h-129q-162 0 -235.5 73.5t-73.5 223.5v522h-166z" />
<glyph unicode="u" horiz-adv-x="1046" d="M115 346v637h186v-621q0 -215 199 -215q97 0 167 63.5t70 166.5v606h187v-983h-179v133q-94 -158 -284 -158q-167 0 -256.5 99t-89.5 272z" />
<glyph unicode="v" horiz-adv-x="1015" d="M31 983h200l279 -797l276 797h199l-362 -983h-232z" />
<glyph unicode="w" horiz-adv-x="1464" d="M51 983h201l176 -750l205 750h201l204 -750l176 750h199l-266 -983h-203l-211 760l-211 -760h-207z" />
<glyph unicode="x" horiz-adv-x="997" d="M31 0l356 510l-330 473h219l224 -334l221 334h219l-330 -473l357 -510h-219l-248 371l-250 -371h-219z" />
<glyph unicode="y" horiz-adv-x="993" d="M31 983h198l267 -731l274 731h193l-418 -1104q-16 -41 -24.5 -61.5t-23 -52t-27 -47.5t-31.5 -37t-39.5 -31t-48.5 -20.5t-62.5 -14.5t-77.5 -4h-170v164h149q83 0 115 26.5t64 112.5l32 84z" />
<glyph unicode="z" horiz-adv-x="931" d="M72 0v162l561 657h-541v164h768v-162l-561 -657h561v-164h-788z" />
<glyph unicode="{" horiz-adv-x="825" d="M102 563v176q114 0 170 40t56 147v331q0 101 11 163t42 107t87 63t146 18h109v-154h-86q-30 0 -52 -3.5t-37 -10.5t-25 -18t-15 -25.5t-7.5 -33t-2.5 -41.5v-50v-11v-10.5v-11.5v-336q0 -108 -44 -169.5t-159 -80.5v-4q115 -19 159 -80.5t44 -169.5v-333q0 -113 4 -137 q10 -55 59 -70q29 -9 76 -9h86v-153h-109q-90 0 -146 18t-87 63t-42 106.5t-11 162.5v330q0 107 -56 146.5t-170 39.5z" />
<glyph unicode="|" horiz-adv-x="737" d="M287 -287v1925h164v-1925h-164z" />
<glyph unicode="}" horiz-adv-x="825" d="M102 -150h86q30 0 52 3.5t37.5 11t25 18.5t15 25.5t8 33.5t2.5 42.5v50.5v31v333q0 108 43.5 169.5t158.5 80.5v4q-115 19 -158.5 80.5t-43.5 169.5v336q0 113 -5 138q-11 54 -61 69q-29 8 -74 8h-86v154h109q90 0 146 -18t87.5 -63t42.5 -107t11 -163v-331 q0 -107 56 -147t169 -40v-176q-114 0 -169.5 -39.5t-55.5 -146.5v-330q0 -101 -11 -163t-42.5 -106.5t-87.5 -62.5t-146 -18h-109v153z" />
<glyph unicode="~" d="M123 592q11 126 92 191t201 65q66 0 146 -30t153.5 -59.5t122.5 -29.5q46 0 74 28t32 81h162q-13 -134 -77 -193t-161 -59q-72 0 -155.5 30t-158.5 59.5t-128 29.5q-60 0 -95.5 -31t-43.5 -82h-164z" />
<glyph unicode="&#xa1;" horiz-adv-x="561" d="M143 872q0 57 40.5 97.5t97.5 40.5t97 -40.5t40 -97.5t-40 -97t-97 -40t-97.5 40t-40.5 97zM164 -463l53 1018h127l53 -1018h-233z" />
<glyph unicode="&#xa2;" horiz-adv-x="1036" d="M66 492q0 243 130 380.5t343 137.5q23 0 73 -4l56 172l129 -41l-56 -170q139 -66 207 -242l-168 -49q-43 82 -94 121l-209 -652q32 -4 55 -4q95 0 149 38.5t107 150.5l168 -56q-73 -168 -173.5 -234.5t-243.5 -66.5q-55 0 -115 13l-55 -174l-131 41l57 180 q-108 61 -168.5 179t-60.5 280zM256 492q0 -192 96 -285l207 635h-27q-139 0 -207.5 -98.5t-68.5 -251.5z" />
<glyph unicode="&#xa3;" horiz-adv-x="1171" d="M123 0v160q98 0 162.5 74t64.5 174q0 93 -22 170h-205v163h143q-59 136 -59 283q0 172 117.5 283.5t304.5 111.5q160 0 264.5 -54t177.5 -169l-147 -115q-61 88 -127.5 124t-163.5 36q-112 0 -172 -61t-60 -160q0 -53 11.5 -107.5t21 -82t33.5 -89.5h397v-163h-346 q17 -83 17 -168q0 -135 -76 -236h651v-174h-987z" />
<glyph unicode="&#xa4;" horiz-adv-x="1255" d="M123 1094l108 106l136 -135q117 74 266 74q148 0 260 -70l131 131l109 -106l-129 -129q83 -113 83 -269q0 -155 -83 -268l129 -129l-109 -106l-131 131q-112 -70 -260 -70q-149 0 -266 74l-136 -135l-106 106l133 133q-80 113 -80 264q0 152 80 262zM365 696 q0 -127 74 -200.5t194 -73.5t194 73.5t74 200.5t-74 201t-194 74t-194 -74t-74 -201z" />
<glyph unicode="&#xa5;" horiz-adv-x="1290" d="M102 1393h207l338 -609l336 609h205l-264 -467h237v-154h-325l-93 -164h418v-153h-420v-455h-194v455h-420v153h420l-92 164h-328v154h240z" />
<glyph unicode="&#xa7;" horiz-adv-x="1306" d="M143 631q0 135 117 252q-55 79 -55 204q0 169 129 281.5t328 112.5q159 0 268.5 -61.5t193.5 -182.5l-143 -113q-81 103 -149.5 144t-178.5 41q-119 0 -189.5 -64.5t-70.5 -157.5q0 -39 15 -71t40.5 -55t69.5 -44t89.5 -36.5t113.5 -34.5q251 -64 346.5 -155t95.5 -257 q0 -136 -119 -252q58 -77 58 -205q0 -167 -129 -280t-328 -113q-160 0 -269.5 61.5t-191.5 182.5l144 113q80 -103 147.5 -144t179.5 -41q118 0 188 64t70 157t-76.5 143.5t-248.5 98.5q-251 64 -348 155t-97 257zM332 633q0 -35 9.5 -64.5t23 -51t41 -40.5t51 -31.5t66 -26 t72.5 -21.5t83 -21q156 -38 240 -88q57 63 57 143q0 35 -9.5 64.5t-23 51t-41 40.5t-51 31.5t-66 26t-72.5 21.5t-83 21q-159 42 -244 88q-53 -59 -53 -143z" />
<glyph unicode="&#xa8;" horiz-adv-x="880" d="M123 1317q0 51 36 87t87 36t87 -36t36 -87t-36 -87t-87 -36t-87 36t-36 87zM512 1317q0 51 36 87t87 36t87 -36t36 -87t-36 -87t-87 -36t-87 36t-36 87z" />
<glyph unicode="&#xa9;" horiz-adv-x="1753" d="M123 727q0 159 58.5 299t158.5 239.5t240 157.5t297 58q210 0 382.5 -98t271.5 -271t99 -385t-99 -385t-271.5 -271t-382.5 -98q-157 0 -297 58t-240 157.5t-158.5 239.5t-58.5 299zM264 727q0 -176 78.5 -320t219 -226.5t315.5 -82.5t315.5 82.5t218.5 226.5t78 320 t-78 320t-218.5 226.5t-315.5 82.5t-315.5 -82.5t-219 -226.5t-78.5 -320zM459 727q0 195 118 324t308 129q248 0 360 -219l-147 -64q-45 73 -92 101t-121 28q-123 0 -189.5 -80t-66.5 -219q0 -140 66.5 -219.5t189.5 -79.5q77 0 126 34t97 118l143 -70 q-63 -124 -147.5 -180t-218.5 -56q-190 0 -308 129t-118 324z" />
<glyph unicode="&#xab;" horiz-adv-x="1193" d="M143 598l314 385h184l-311 -385l311 -385h-184zM553 598l313 385h185l-312 -385l312 -385h-185z" />
<glyph unicode="&#xad;" horiz-adv-x="727" d="M82 434v180h563v-180h-563z" />
<glyph unicode="&#xae;" horiz-adv-x="1753" d="M123 727q0 159 58.5 299t158.5 239.5t240 157.5t297 58q210 0 382.5 -98t271.5 -271t99 -385t-99 -385t-271.5 -271t-382.5 -98q-157 0 -297 58t-240 157.5t-158.5 239.5t-58.5 299zM264 727q0 -176 78.5 -320t219 -226.5t315.5 -82.5t315.5 82.5t218.5 226.5t78 320 t-78 320t-218.5 226.5t-315.5 82.5t-315.5 -82.5t-219 -226.5t-78.5 -320zM584 307v848h338q121 0 197.5 -74.5t76.5 -189.5q0 -81 -44 -145t-118 -95l215 -344h-174l-157 256q-28 44 -48.5 56t-76.5 12h-56v-324h-153zM737 766h150q75 0 111 33.5t36 91.5q0 123 -147 123 h-150v-248z" />
<glyph unicode="&#xaf;" horiz-adv-x="843" d="M123 1217v155h598v-155h-598z" />
<glyph unicode="&#xb0;" horiz-adv-x="882" d="M123 1167q0 133 92 222.5t225 89.5q134 0 227 -89.5t93 -222.5q0 -134 -92.5 -223.5t-227.5 -89.5q-133 0 -225 89.5t-92 223.5zM266 1167q0 -78 49 -128t125 -50q78 0 127 50t49 128q0 77 -49 126.5t-127 49.5q-76 0 -125 -49.5t-49 -126.5z" />
<glyph unicode="&#xb1;" d="M102 0v168h1024v-168h-1024zM102 715v168h428v387h168v-387h428v-168h-428v-387h-168v387h-428z" />
<glyph unicode="&#xb2;" horiz-adv-x="933" d="M102 494v51q0 79 29.5 141t77.5 101t105.5 71t114.5 58.5t105 55t77.5 70t29.5 93.5q0 66 -42 104.5t-114 38.5q-88 0 -137 -46t-88 -163l-147 45q50 164 142 234.5t239 70.5q141 0 226 -77t85 -197q0 -69 -24.5 -124t-65.5 -91.5t-92 -66t-105 -54t-101.5 -48.5t-86 -57 t-54.5 -71l547 2v-141h-721z" />
<glyph unicode="&#xb3;" horiz-adv-x="907" d="M51 682l119 82q60 -81 122 -114.5t144 -33.5q85 0 139 39t54 111q0 68 -56.5 104.5t-187.5 36.5q-20 0 -82 -4v121l76 8q115 11 166.5 41t50.5 92q-1 54 -43.5 83.5t-114.5 29.5q-71 0 -125.5 -28t-105.5 -95l-115 88q125 176 354 176q140 0 228 -65.5t88 -177.5 q0 -135 -135 -195q168 -57 168 -213q0 -123 -97.5 -206.5t-259.5 -84.5q-245 -3 -387 205z" />
<glyph unicode="&#xb4;" horiz-adv-x="667" d="M123 1165l192 289h230l-238 -289h-184z" />
<glyph unicode="&#xb6;" horiz-adv-x="1390" d="M143 1001q0 205 129 329t336 124h322v-1659h-164v754h-158q-207 0 -336 123.5t-129 328.5zM1083 -205v1659h164v-1659h-164z" />
<glyph unicode="&#xb7;" horiz-adv-x="524" d="M123 651q0 59 40.5 99.5t98.5 40.5t98.5 -40.5t40.5 -99.5t-40.5 -99t-98.5 -40t-98.5 40t-40.5 99z" />
<glyph unicode="&#xb8;" horiz-adv-x="692" d="M123 -387l74 104q62 -53 139 -53q42 0 69 17t27 53q0 31 -26.5 48t-65.5 17q-32 0 -53 -8l-68 62l121 190l98 -43l-67 -102q90 0 145 -44t55 -120q0 -86 -61 -142.5t-172 -56.5q-63 0 -120.5 20.5t-94.5 57.5z" />
<glyph unicode="&#xb9;" horiz-adv-x="743" d="M113 1126v113l67 8q88 10 115 32.5t27 80.5v35h172v-901h-172v632h-209z" />
<glyph unicode="&#xbb;" horiz-adv-x="1193" d="M143 213l312 385l-312 385h185l313 -385l-313 -385h-185zM553 213l311 385l-311 385h184l314 -385l-314 -385h-184z" />
<glyph unicode="&#xbc;" horiz-adv-x="1875" d="M70 1126v113l67 8q88 10 115 32.5t27 80.5v35h172v-901h-172v632h-209zM313 0l979 1393h181l-979 -1393h-181zM1071 174v123l330 604h170l-330 -596h254q36 0 50 10t14 39v191h157v-240h137v-131h-137v-174h-157v174h-488z" />
<glyph unicode="&#xbd;" horiz-adv-x="2004" d="M70 1126v113l67 8q88 10 115 32.5t27 80.5v35h172v-901h-172v632h-209zM313 0l979 1393h181l-979 -1393h-181zM1210 0v51q0 79 29.5 141t77.5 101t105.5 71t114.5 58.5t105 55t77.5 70t29.5 93.5q0 66 -42 104.5t-114 38.5q-88 0 -137 -46t-88 -163l-147 46 q50 164 142 234.5t239 70.5q141 0 226 -77.5t85 -197.5q0 -69 -24.5 -124t-65.5 -91.5t-92 -66t-105 -54t-101.5 -48.5t-86 -57t-54.5 -71l547 2v-141h-721z" />
<glyph unicode="&#xbe;" horiz-adv-x="2121" d="M70 674l118 82q60 -81 122.5 -114.5t144.5 -33.5q85 0 138.5 39t53.5 111q0 68 -56.5 104.5t-187.5 36.5q-19 0 -81 -4v121l75 8q115 11 166.5 41t50.5 92q-1 54 -43 83.5t-114 29.5q-71 0 -126 -28t-106 -95l-114 88q125 176 354 176q140 0 227.5 -66t87.5 -178 q0 -134 -135 -194q168 -57 168 -213q0 -123 -97 -206.5t-259 -84.5q-245 -3 -387 205zM559 0l979 1393h180l-979 -1393h-180zM1317 174v123l330 604h170l-330 -596h254q35 0 49 9.5t14 39.5v191h158v-240h137v-131h-137v-174h-158v174h-487z" />
<glyph unicode="&#xbf;" horiz-adv-x="1028" d="M61 -106q0 73 21.5 135.5t57 107t78 84t86.5 75t81 71t63 80.5t31 96l4 43h172v-66q0 -65 -22 -120t-57 -95.5t-77.5 -77t-85.5 -71t-78 -71t-57 -85t-22 -104.5q0 -90 58 -147.5t175 -57.5q105 0 174.5 52t124.5 189l179 -63q-66 -185 -183 -270.5t-290 -85.5 q-198 0 -315.5 109.5t-117.5 271.5zM430 872q0 57 40 97.5t97 40.5t97.5 -40.5t40.5 -97.5t-40.5 -97t-97.5 -40t-97 40t-40 97z" />
<glyph unicode="&#xc0;" horiz-adv-x="1314" d="M25 0l512 1454h241l512 -1454h-200l-127 371h-613l-127 -371h-198zM332 1905h229l193 -289h-185zM410 545h493l-246 721z" />
<glyph unicode="&#xc1;" horiz-adv-x="1314" d="M25 0l512 1454h241l512 -1454h-200l-127 371h-613l-127 -371h-198zM410 545h493l-246 721zM559 1616l193 289h229l-238 -289h-184z" />
<glyph unicode="&#xc2;" horiz-adv-x="1314" d="M25 0l512 1454h241l512 -1454h-200l-127 371h-613l-127 -371h-198zM311 1616l217 289h256l217 -289h-188l-156 188l-157 -188h-189zM410 545h493l-246 721z" />
<glyph unicode="&#xc3;" horiz-adv-x="1314" d="M25 0l512 1454h241l512 -1454h-200l-127 371h-613l-127 -371h-198zM326 1645q0 123 51 178t133 55q53 0 103 -23.5t91.5 -47t73.5 -23.5q35 0 51.5 20.5t16.5 69.5h143q0 -122 -49.5 -178t-126.5 -56q-39 0 -81 15t-70.5 33.5t-61.5 33.5t-57 15q-33 0 -52.5 -25 t-19.5 -67h-145zM410 545h493l-246 721z" />
<glyph unicode="&#xc4;" horiz-adv-x="1314" d="M25 0l512 1454h241l512 -1454h-200l-127 371h-613l-127 -371h-198zM340 1767q0 51 36 87t87 36t87 -36t36 -87t-36 -86.5t-87 -35.5t-87 35.5t-36 86.5zM410 545h493l-246 721zM729 1767q0 51 36 87t87 36t87 -36t36 -87t-36 -86.5t-87 -35.5t-87 35.5t-36 86.5z" />
<glyph unicode="&#xc5;" horiz-adv-x="1314" d="M25 0l512 1454h241l512 -1454h-200l-127 371h-613l-127 -371h-198zM410 545h493l-246 721zM440 1702q0 87 63.5 145t153.5 58t153.5 -58t63.5 -145t-63.5 -145t-153.5 -58t-153.5 58t-63.5 145zM543 1702q0 -49 33 -80t81 -31t81.5 31t33.5 80t-33.5 79.5t-81.5 30.5 t-81 -30.5t-33 -79.5z" />
<glyph unicode="&#xc6;" horiz-adv-x="1855" d="M-16 0l751 1454h991v-174h-686v-440h656v-174h-656v-492h697v-174h-891v371h-469l-193 -371h-200zM465 545h381v735z" />
<glyph unicode="&#xc7;" horiz-adv-x="1368" d="M78 727q0 215 79 385.5t227.5 269.5t342.5 99q206 0 352 -102t221 -298l-180 -57q-72 153 -161 216t-232 63q-203 0 -327 -160.5t-124 -415.5q0 -256 124 -415.5t327 -159.5q149 0 237 67t171 244l176 -66q-93 -213 -214.5 -311.5t-310.5 -110.5l-51 -77q90 0 145.5 -44 t55.5 -120q0 -86 -61.5 -142.5t-172.5 -56.5q-63 0 -120.5 20.5t-94.5 57.5l74 104q62 -53 139 -53q42 0 69.5 17t27.5 53q0 31 -26.5 48t-65.5 17q-33 0 -54 -8l-67 62l78 122q-175 17 -308.5 119t-204.5 266.5t-71 366.5z" />
<glyph unicode="&#xc8;" horiz-adv-x="1153" d="M143 0v1454h881v-174h-686v-440h655v-174h-655v-492h696v-174h-891zM281 1905h229l192 -289h-184z" />
<glyph unicode="&#xc9;" horiz-adv-x="1153" d="M143 0v1454h881v-174h-686v-440h655v-174h-655v-492h696v-174h-891zM508 1616l192 289h230l-238 -289h-184z" />
<glyph unicode="&#xca;" horiz-adv-x="1153" d="M143 0v1454h881v-174h-686v-440h655v-174h-655v-492h696v-174h-891zM260 1616l217 289h256l217 -289h-188l-156 188l-157 -188h-189z" />
<glyph unicode="&#xcb;" horiz-adv-x="1153" d="M143 0v1454h881v-174h-686v-440h655v-174h-655v-492h696v-174h-891zM289 1767q0 51 36 87t87 36t87 -36t36 -87t-36 -86.5t-87 -35.5t-87 35.5t-36 86.5zM678 1767q0 51 36 87t87 36t87 -36t36 -87t-36 -86.5t-87 -35.5t-87 35.5t-36 86.5z" />
<glyph unicode="&#xcc;" horiz-adv-x="481" d="M-84 1905h229l193 -289h-184zM143 0v1454h195v-1454h-195z" />
<glyph unicode="&#xcd;" horiz-adv-x="481" d="M143 0v1454h195v-1454h-195zM143 1616l193 289h229l-237 -289h-185z" />
<glyph unicode="&#xce;" horiz-adv-x="481" d="M-104 1616l217 289h256l217 -289h-189l-155 188l-158 -188h-188zM143 0v1454h195v-1454h-195z" />
<glyph unicode="&#xcf;" horiz-adv-x="481" d="M-76 1767q0 51 36 87t87 36t87 -36t36 -87t-36 -86.5t-87 -35.5t-87 35.5t-36 86.5zM143 0v1454h195v-1454h-195zM313 1767q0 51 36 87t87 36t87 -36t36 -87t-36 -86.5t-87 -35.5t-87 35.5t-36 86.5z" />
<glyph unicode="&#xd0;" horiz-adv-x="1464" d="M78 666v174h170v614h506q152 0 272 -53t199 -149t120 -229t41 -296t-41 -296t-120 -229t-199 -149t-272 -53h-506v666h-170zM442 174h281q228 0 346.5 144.5t118.5 408.5q0 262 -118.5 407.5t-346.5 145.5h-281v-440h373v-174h-373v-492z" />
<glyph unicode="&#xd1;" horiz-adv-x="1443" d="M143 0v1454h211l752 -1145v1145h194v-1454h-210l-752 1145v-1145h-195zM403 1645q0 123 51.5 178t133.5 55q53 0 103 -23.5t91.5 -47t73.5 -23.5q35 0 51.5 20.5t16.5 69.5h143q0 -122 -49.5 -178t-126.5 -56q-39 0 -81 15t-70.5 33.5t-61.5 33.5t-57 15q-33 0 -52.5 -25 t-19.5 -67h-146z" />
<glyph unicode="&#xd2;" horiz-adv-x="1515" d="M78 727q0 215 82.5 385.5t238 269.5t359.5 99t359.5 -99t238 -269.5t82.5 -385.5t-82.5 -385.5t-238 -269.5t-359.5 -99t-359.5 99t-238 269.5t-82.5 385.5zM276 727q0 -256 132.5 -415.5t349.5 -159.5t349 159.5t132 415.5q0 255 -132 415.5t-349 160.5t-349.5 -160.5 t-132.5 -415.5zM432 1905h230l192 -289h-184z" />
<glyph unicode="&#xd3;" horiz-adv-x="1515" d="M78 727q0 215 82.5 385.5t238 269.5t359.5 99t359.5 -99t238 -269.5t82.5 -385.5t-82.5 -385.5t-238 -269.5t-359.5 -99t-359.5 99t-238 269.5t-82.5 385.5zM276 727q0 -256 132.5 -415.5t349.5 -159.5t349 159.5t132 415.5q0 255 -132 415.5t-349 160.5t-349.5 -160.5 t-132.5 -415.5zM659 1616l193 289h229l-237 -289h-185z" />
<glyph unicode="&#xd4;" horiz-adv-x="1515" d="M78 727q0 215 82.5 385.5t238 269.5t359.5 99t359.5 -99t238 -269.5t82.5 -385.5t-82.5 -385.5t-238 -269.5t-359.5 -99t-359.5 99t-238 269.5t-82.5 385.5zM276 727q0 -256 132.5 -415.5t349.5 -159.5t349 159.5t132 415.5q0 255 -132 415.5t-349 160.5t-349.5 -160.5 t-132.5 -415.5zM412 1616l217 289h256l217 -289h-189l-155 188l-158 -188h-188z" />
<glyph unicode="&#xd5;" horiz-adv-x="1515" d="M78 727q0 215 82.5 385.5t238 269.5t359.5 99t359.5 -99t238 -269.5t82.5 -385.5t-82.5 -385.5t-238 -269.5t-359.5 -99t-359.5 99t-238 269.5t-82.5 385.5zM276 727q0 -256 132.5 -415.5t349.5 -159.5t349 159.5t132 415.5q0 255 -132 415.5t-349 160.5t-349.5 -160.5 t-132.5 -415.5zM426 1645q0 123 51 178t133 55q53 0 103.5 -23.5t92 -47t73.5 -23.5q35 0 51 20t16 70h144q0 -122 -50 -178t-127 -56q-39 0 -81 15t-70.5 33.5t-61.5 33.5t-57 15q-33 0 -52.5 -25t-19.5 -67h-145z" />
<glyph unicode="&#xd6;" horiz-adv-x="1515" d="M78 727q0 215 82.5 385.5t238 269.5t359.5 99t359.5 -99t238 -269.5t82.5 -385.5t-82.5 -385.5t-238 -269.5t-359.5 -99t-359.5 99t-238 269.5t-82.5 385.5zM276 727q0 -256 132.5 -415.5t349.5 -159.5t349 159.5t132 415.5q0 255 -132 415.5t-349 160.5t-349.5 -160.5 t-132.5 -415.5zM440 1767q0 51 36 87t87 36t87 -36t36 -87t-36 -86.5t-87 -35.5t-87 35.5t-36 86.5zM829 1767q0 51 36 87t87 36t87 -36t36 -87t-36 -86.5t-87 -35.5t-87 35.5t-36 86.5z" />
<glyph unicode="&#xd7;" d="M131 270l365 365l-365 364l119 119l364 -364l365 364l119 -119l-365 -364l365 -365l-119 -118l-365 364l-364 -364z" />
<glyph unicode="&#xd8;" horiz-adv-x="1515" d="M78 727q0 215 82.5 385.5t238 269.5t359.5 99q269 0 448 -168l140 151l116 -96l-155 -172q131 -198 131 -469q0 -215 -82.5 -385.5t-238 -269.5t-359.5 -99q-253 0 -432 152l-123 -135l-117 96l137 152q-145 199 -145 489zM276 727q0 -200 82 -342l721 789 q-129 129 -321 129q-217 0 -349.5 -160.5t-132.5 -415.5zM453 264q124 -112 305 -112q217 0 349 159.5t132 415.5q0 183 -70 320z" />
<glyph unicode="&#xd9;" horiz-adv-x="1347" d="M135 520v934h199v-926q0 -189 81.5 -282.5t258.5 -93.5t258.5 93.5t81.5 282.5v926h198v-934q0 -547 -538 -547q-539 0 -539 547zM348 1905h230l192 -289h-184z" />
<glyph unicode="&#xda;" horiz-adv-x="1347" d="M135 520v934h199v-926q0 -189 81.5 -282.5t258.5 -93.5t258.5 93.5t81.5 282.5v926h198v-934q0 -547 -538 -547q-539 0 -539 547zM575 1616l193 289h229l-237 -289h-185z" />
<glyph unicode="&#xdb;" horiz-adv-x="1347" d="M135 520v934h199v-926q0 -189 81.5 -282.5t258.5 -93.5t258.5 93.5t81.5 282.5v926h198v-934q0 -547 -538 -547q-539 0 -539 547zM328 1616l217 289h256l217 -289h-189l-155 188l-158 -188h-188z" />
<glyph unicode="&#xdc;" horiz-adv-x="1347" d="M135 520v934h199v-926q0 -189 81.5 -282.5t258.5 -93.5t258.5 93.5t81.5 282.5v926h198v-934q0 -547 -538 -547q-539 0 -539 547zM356 1767q0 51 36 87t87 36t87 -36t36 -87t-36 -86.5t-87 -35.5t-87 35.5t-36 86.5zM745 1767q0 51 36 87t87 36t87 -36t36 -87t-36 -86.5 t-87 -35.5t-87 35.5t-36 86.5z" />
<glyph unicode="&#xdd;" horiz-adv-x="1187" d="M14 1454h211l371 -645l369 645h209l-484 -829v-625h-194v627zM496 1616l192 289h230l-238 -289h-184z" />
<glyph unicode="&#xde;" horiz-adv-x="1202" d="M143 0v1454h195v-254h321q207 0 336 -123.5t129 -328.5t-129 -329t-336 -124h-321v-295h-195zM338 469h293q149 0 222 72t73 207q0 278 -295 278h-293v-557z" />
<glyph unicode="&#xdf;" horiz-adv-x="1124" d="M123 0v1059q0 109 36.5 191t99 128t137 68t159.5 22q188 0 301 -107t115 -261q3 -237 -193 -328q133 -35 203 -126.5t72 -231.5q1 -82 -29 -155.5t-86.5 -132t-147 -92.5t-202.5 -34h-156v162h146q138 0 211 72t73 184q0 59 -14.5 103t-49.5 78.5t-97.5 52.5t-153.5 18 h-78v143l80 12q237 37 237 258q0 105 -64 164.5t-171 59.5q-48 0 -89 -13.5t-77 -43.5t-57 -87.5t-21 -136.5v-1026h-184z" />
<glyph unicode="&#xe0;" horiz-adv-x="1019" d="M74 268q0 67 22 116.5t67 82t98.5 52.5t129.5 36l199 41q66 13 93.5 35t27.5 74q0 70 -51.5 109.5t-141.5 39.5q-86 0 -145 -36.5t-123 -137.5l-154 82q36 58 74 100.5t88.5 77.5t115.5 52.5t144 17.5q180 0 279.5 -90t99.5 -234v-686h-178v137q-45 -68 -129 -109.5 t-195 -41.5q-142 0 -231.5 78.5t-89.5 203.5zM190 1454h230l192 -289h-184zM264 276q0 -61 45 -95t131 -34q113 0 192 59.5t79 151.5v140l-267 -70q-96 -25 -138 -60t-42 -92z" />
<glyph unicode="&#xe1;" horiz-adv-x="1019" d="M74 268q0 67 22 116.5t67 82t98.5 52.5t129.5 36l199 41q66 13 93.5 35t27.5 74q0 70 -51.5 109.5t-141.5 39.5q-86 0 -145 -36.5t-123 -137.5l-154 82q36 58 74 100.5t88.5 77.5t115.5 52.5t144 17.5q180 0 279.5 -90t99.5 -234v-686h-178v137q-45 -68 -129 -109.5 t-195 -41.5q-142 0 -231.5 78.5t-89.5 203.5zM264 276q0 -61 45 -95t131 -34q113 0 192 59.5t79 151.5v140l-267 -70q-96 -25 -138 -60t-42 -92zM418 1165l192 289h230l-238 -289h-184z" />
<glyph unicode="&#xe2;" horiz-adv-x="1019" d="M74 268q0 67 22 116.5t67 82t98.5 52.5t129.5 36l199 41q66 13 93.5 35t27.5 74q0 70 -51.5 109.5t-141.5 39.5q-86 0 -145 -36.5t-123 -137.5l-154 82q36 58 74 100.5t88.5 77.5t115.5 52.5t144 17.5q180 0 279.5 -90t99.5 -234v-686h-178v137q-45 -68 -129 -109.5 t-195 -41.5q-142 0 -231.5 78.5t-89.5 203.5zM170 1165l217 289h256l217 -289h-188l-156 189l-158 -189h-188zM264 276q0 -61 45 -95t131 -34q113 0 192 59.5t79 151.5v140l-267 -70q-96 -25 -138 -60t-42 -92z" />
<glyph unicode="&#xe3;" horiz-adv-x="1019" d="M74 268q0 67 22 116.5t67 82t98.5 52.5t129.5 36l199 41q66 13 93.5 35t27.5 74q0 70 -51.5 109.5t-141.5 39.5q-86 0 -145 -36.5t-123 -137.5l-154 82q36 58 74 100.5t88.5 77.5t115.5 52.5t144 17.5q180 0 279.5 -90t99.5 -234v-686h-178v137q-45 -68 -129 -109.5 t-195 -41.5q-142 0 -231.5 78.5t-89.5 203.5zM184 1194q0 123 51.5 178t133.5 55q53 0 103 -23.5t91.5 -47t73.5 -23.5q35 0 51.5 20.5t16.5 69.5h143q0 -122 -49.5 -177.5t-126.5 -55.5q-50 0 -102 24t-95.5 48t-73.5 24q-33 0 -52 -25t-19 -67h-146zM264 276q0 -61 45 -95 t131 -34q113 0 192 59.5t79 151.5v140l-267 -70q-96 -25 -138 -60t-42 -92z" />
<glyph unicode="&#xe4;" horiz-adv-x="1019" d="M74 268q0 67 22 116.5t67 82t98.5 52.5t129.5 36l199 41q66 13 93.5 35t27.5 74q0 70 -51.5 109.5t-141.5 39.5q-86 0 -145 -36.5t-123 -137.5l-154 82q36 58 74 100.5t88.5 77.5t115.5 52.5t144 17.5q180 0 279.5 -90t99.5 -234v-686h-178v137q-45 -68 -129 -109.5 t-195 -41.5q-142 0 -231.5 78.5t-89.5 203.5zM199 1317q0 51 36 87t87 36t86.5 -36t35.5 -87t-35.5 -87t-86.5 -36t-87 36t-36 87zM264 276q0 -61 45 -95t131 -34q113 0 192 59.5t79 151.5v140l-267 -70q-96 -25 -138 -60t-42 -92zM588 1317q0 51 36 87t87 36t87 -36t36 -87 t-36 -87t-87 -36t-87 36t-36 87z" />
<glyph unicode="&#xe5;" horiz-adv-x="1019" d="M74 268q0 67 22 116.5t67 82t98.5 52.5t129.5 36l199 41q66 13 93.5 35t27.5 74q0 70 -51.5 109.5t-141.5 39.5q-86 0 -145 -36.5t-123 -137.5l-154 82q36 58 74 100.5t88.5 77.5t115.5 52.5t144 17.5q180 0 279.5 -90t99.5 -234v-686h-178v137q-45 -68 -129 -109.5 t-195 -41.5q-142 0 -231.5 78.5t-89.5 203.5zM264 276q0 -61 45 -95t131 -34q113 0 192 59.5t79 151.5v140l-267 -70q-96 -25 -138 -60t-42 -92zM305 1337q0 86 62 145.5t149 59.5t149 -59.5t62 -145.5t-62 -145t-149 -59t-149 59t-62 145zM406 1337q0 -49 31 -80.5 t79 -31.5t79.5 31.5t31.5 80.5t-31.5 81t-79.5 32q-47 0 -78.5 -32t-31.5 -81z" />
<glyph unicode="&#xe6;" horiz-adv-x="1673" d="M74 268q0 67 22 116.5t67 82t98.5 52.5t129.5 36l199 41q66 13 93.5 35t27.5 74q0 70 -51.5 109.5t-141.5 39.5q-89 0 -146.5 -36t-121.5 -138l-154 82q36 58 74 100.5t88.5 77.5t115.5 52.5t144 17.5q111 0 194 -36.5t128 -101.5q127 136 325 136q204 0 322.5 -134.5 t118.5 -381.5v-35h-637q-31 0 -44.5 -13t-13.5 -43q0 -39 13.5 -81t42.5 -83.5t84 -68.5t127 -27q90 0 146 34.5t112 137.5l155 -73q-80 -153 -177 -210t-236 -57q-235 0 -365 168q-75 -78 -166.5 -116.5t-218.5 -38.5q-164 0 -259 77.5t-95 204.5zM264 276q0 -129 187 -129 q197 0 288 144q-28 92 -28 201v6l-267 -70q-96 -25 -138 -60t-42 -92zM907 602h506q-13 117 -77.5 180.5t-166.5 63.5q-224 0 -262 -244z" />
<glyph unicode="&#xe7;" horiz-adv-x="1007" d="M66 492q0 243 130 380.5t343 137.5q298 0 409 -285l-168 -49q-49 92 -104.5 129t-143.5 37q-139 0 -207.5 -98.5t-68.5 -251.5q0 -73 15.5 -134t47 -111t86 -78t127.5 -28q95 0 149 38.5t107 150.5l168 -56q-65 -150 -152.5 -219t-207.5 -80l-51 -77q90 0 145 -44 t55 -120q0 -86 -61 -142.5t-172 -56.5q-63 0 -120.5 20.5t-94.5 57.5l74 104q62 -53 139 -53q42 0 69 17t27 53q0 31 -26.5 48t-65.5 17q-32 0 -53 -8l-68 62l80 124q-186 21 -296.5 156.5t-110.5 358.5z" />
<glyph unicode="&#xe8;" horiz-adv-x="1028" d="M66 492q0 234 124 375t330 141q204 0 322.5 -134.5t118.5 -381.5v-35h-637q-31 0 -44.5 -13t-13.5 -43q0 -31 7.5 -63.5t27 -68.5t49 -64t76.5 -46t106 -18q90 0 146.5 35t112.5 137l155 -73q-80 -153 -177.5 -210t-236.5 -57q-214 0 -340 140t-126 379zM205 1454h229 l193 -289h-185zM262 602h506q-13 117 -77.5 180.5t-166.5 63.5q-224 0 -262 -244z" />
<glyph unicode="&#xe9;" horiz-adv-x="1028" d="M66 492q0 234 124 375t330 141q204 0 322.5 -134.5t118.5 -381.5v-35h-637q-31 0 -44.5 -13t-13.5 -43q0 -31 7.5 -63.5t27 -68.5t49 -64t76.5 -46t106 -18q90 0 146.5 35t112.5 137l155 -73q-80 -153 -177.5 -210t-236.5 -57q-214 0 -340 140t-126 379zM262 602h506 q-13 117 -77.5 180.5t-166.5 63.5q-224 0 -262 -244zM432 1165l193 289h229l-238 -289h-184z" />
<glyph unicode="&#xea;" horiz-adv-x="1028" d="M66 492q0 234 124 375t330 141q204 0 322.5 -134.5t118.5 -381.5v-35h-637q-31 0 -44.5 -13t-13.5 -43q0 -31 7.5 -63.5t27 -68.5t49 -64t76.5 -46t106 -18q90 0 146.5 35t112.5 137l155 -73q-80 -153 -177.5 -210t-236.5 -57q-214 0 -340 140t-126 379zM184 1165 l217 289h256l217 -289h-188l-156 189l-157 -189h-189zM262 602h506q-13 117 -77.5 180.5t-166.5 63.5q-224 0 -262 -244z" />
<glyph unicode="&#xeb;" horiz-adv-x="1028" d="M66 492q0 234 124 375t330 141q204 0 322.5 -134.5t118.5 -381.5v-35h-637q-31 0 -44.5 -13t-13.5 -43q0 -31 7.5 -63.5t27 -68.5t49 -64t76.5 -46t106 -18q90 0 146.5 35t112.5 137l155 -73q-80 -153 -177.5 -210t-236.5 -57q-214 0 -340 140t-126 379zM213 1317 q0 51 36 87t87 36t87 -36t36 -87t-36 -87t-87 -36t-87 36t-36 87zM262 602h506q-13 117 -77.5 180.5t-166.5 63.5q-224 0 -262 -244zM602 1317q0 51 36 87t87 36t87 -36t36 -87t-36 -87t-87 -36t-87 36t-36 87z" />
<glyph unicode="&#xec;" horiz-adv-x="432" d="M-111 1454h230l192 -289h-184zM123 0v983h186v-983h-186z" />
<glyph unicode="&#xed;" horiz-adv-x="432" d="M117 1165l192 289h230l-238 -289h-184zM123 0v983h186v-983h-186z" />
<glyph unicode="&#xee;" horiz-adv-x="432" d="M-131 1165l217 289h256l217 -289h-188l-156 189l-158 -189h-188zM123 0v983h186v-983h-186z" />
<glyph unicode="&#xef;" horiz-adv-x="432" d="M-102 1317q0 51 35.5 87t86.5 36t87 -36t36 -87t-36 -87t-87 -36t-86.5 36t-35.5 87zM123 0v983h186v-983h-186zM287 1317q0 51 36 87t87 36t86.5 -36t35.5 -87t-35.5 -87t-86.5 -36t-87 36t-36 87z" />
<glyph unicode="&#xf0;" horiz-adv-x="1103" d="M66 453q0 202 122.5 337.5t321.5 135.5q112 0 192.5 -42.5t126.5 -113.5q-20 104 -81.5 202.5t-155.5 178.5l-283 -147l-67 129l217 112q-119 69 -262 103l57 149q217 -60 371 -166l202 105l68 -125l-147 -78q268 -255 268 -680q0 -88 -14.5 -168.5t-50.5 -157 t-90.5 -132t-140 -89t-192.5 -33.5q-212 0 -337 137t-125 343zM256 453q0 -138 75.5 -225t207.5 -87q131 0 205.5 87t74.5 225q0 139 -76.5 222t-214.5 83q-126 0 -199 -83.5t-73 -221.5z" />
<glyph unicode="&#xf1;" horiz-adv-x="1071" d="M123 0v983h176v-143q103 168 305 168q164 0 258 -109.5t94 -280.5v-618h-186v594q0 115 -56 180.5t-163 65.5q-108 0 -175 -67.5t-67 -180.5v-592h-186zM201 1194q0 123 51 178t133 55q53 0 103 -23.5t91.5 -47t73.5 -23.5q35 0 51.5 20.5t16.5 69.5h143 q0 -122 -49.5 -177.5t-126.5 -55.5q-50 0 -102 24t-95 48t-73 24q-33 0 -52.5 -25t-19.5 -67h-145z" />
<glyph unicode="&#xf2;" horiz-adv-x="1091" d="M66 492q0 232 135 375t344 143t344 -143t135 -375t-135 -375.5t-344 -143.5t-344 143.5t-135 375.5zM219 1454h230l192 -289h-184zM256 492q0 -163 79.5 -257t209.5 -94t209.5 94t79.5 257t-79.5 256.5t-209.5 93.5t-209.5 -93.5t-79.5 -256.5z" />
<glyph unicode="&#xf3;" horiz-adv-x="1091" d="M66 492q0 232 135 375t344 143t344 -143t135 -375t-135 -375.5t-344 -143.5t-344 143.5t-135 375.5zM256 492q0 -163 79.5 -257t209.5 -94t209.5 94t79.5 257t-79.5 256.5t-209.5 93.5t-209.5 -93.5t-79.5 -256.5zM446 1165l193 289h229l-237 -289h-185z" />
<glyph unicode="&#xf4;" horiz-adv-x="1091" d="M66 492q0 232 135 375t344 143t344 -143t135 -375t-135 -375.5t-344 -143.5t-344 143.5t-135 375.5zM199 1165l217 289h256l217 -289h-189l-155 189l-158 -189h-188zM256 492q0 -163 79.5 -257t209.5 -94t209.5 94t79.5 257t-79.5 256.5t-209.5 93.5t-209.5 -93.5 t-79.5 -256.5z" />
<glyph unicode="&#xf5;" horiz-adv-x="1091" d="M66 492q0 232 135 375t344 143t344 -143t135 -375t-135 -375.5t-344 -143.5t-344 143.5t-135 375.5zM213 1194q0 123 51 178t133 55q53 0 103.5 -23.5t92 -47t73.5 -23.5q35 0 51 20t16 70h144q0 -122 -50 -177.5t-127 -55.5q-50 0 -102 24t-95 48t-73 24 q-33 0 -52.5 -25t-19.5 -67h-145zM256 492q0 -163 79.5 -257t209.5 -94t209.5 94t79.5 257t-79.5 256.5t-209.5 93.5t-209.5 -93.5t-79.5 -256.5z" />
<glyph unicode="&#xf6;" horiz-adv-x="1091" d="M66 492q0 232 135 375t344 143t344 -143t135 -375t-135 -375.5t-344 -143.5t-344 143.5t-135 375.5zM227 1317q0 51 36 87t87 36t87 -36t36 -87t-36 -87t-87 -36t-87 36t-36 87zM256 492q0 -163 79.5 -257t209.5 -94t209.5 94t79.5 257t-79.5 256.5t-209.5 93.5 t-209.5 -93.5t-79.5 -256.5zM616 1317q0 51 36 87t87 36t87 -36t36 -87t-36 -87t-87 -36t-87 36t-36 87z" />
<glyph unicode="&#xf7;" d="M102 551v168h1024v-168h-1024zM477 272q0 59 40.5 99.5t98.5 40.5t99 -41t41 -99t-40.5 -98.5t-99.5 -40.5q-58 0 -98.5 40.5t-40.5 98.5zM477 1001q0 59 40.5 99.5t98.5 40.5t99 -40.5t41 -99.5q0 -58 -40.5 -98.5t-99.5 -40.5q-58 0 -98.5 40t-40.5 99z" />
<glyph unicode="&#xf8;" horiz-adv-x="1091" d="M66 492q0 232 135 375t344 143q169 0 295 -99l88 99l100 -90l-96 -107q92 -134 92 -321q0 -232 -135 -375.5t-344 -143.5q-162 0 -285 90l-82 -90l-100 90l86 97q-98 138 -98 332zM256 492q0 -114 37 -189l428 477q-71 62 -176 62q-130 0 -209.5 -93.5t-79.5 -256.5z M377 195q73 -54 168 -54q130 0 209.5 94t79.5 257q0 100 -31 176z" />
<glyph unicode="&#xf9;" horiz-adv-x="1046" d="M115 346v637h186v-621q0 -215 199 -215q97 0 167 63.5t70 166.5v606h187v-983h-179v133q-94 -158 -284 -158q-167 0 -256.5 99t-89.5 272zM195 1454h229l192 -289h-184z" />
<glyph unicode="&#xfa;" horiz-adv-x="1046" d="M115 346v637h186v-621q0 -215 199 -215q97 0 167 63.5t70 166.5v606h187v-983h-179v133q-94 -158 -284 -158q-167 0 -256.5 99t-89.5 272zM422 1165l192 289h230l-238 -289h-184z" />
<glyph unicode="&#xfb;" horiz-adv-x="1046" d="M115 346v637h186v-621q0 -215 199 -215q97 0 167 63.5t70 166.5v606h187v-983h-179v133q-94 -158 -284 -158q-167 0 -256.5 99t-89.5 272zM174 1165l217 289h256l217 -289h-188l-156 189l-158 -189h-188z" />
<glyph unicode="&#xfc;" horiz-adv-x="1046" d="M115 346v637h186v-621q0 -215 199 -215q97 0 167 63.5t70 166.5v606h187v-983h-179v133q-94 -158 -284 -158q-167 0 -256.5 99t-89.5 272zM203 1317q0 51 36 87t87 36t87 -36t36 -87t-36 -87t-87 -36t-87 36t-36 87zM592 1317q0 51 36 87t87 36t87 -36t36 -87t-36 -87 t-87 -36t-87 36t-36 87z" />
<glyph unicode="&#xfd;" horiz-adv-x="993" d="M31 983h198l267 -731l274 731h193l-418 -1104q-16 -41 -24.5 -61.5t-23 -52t-27 -47.5t-31.5 -37t-39.5 -31t-48.5 -20.5t-62.5 -14.5t-77.5 -4h-170v164h149q83 0 115 26.5t64 112.5l32 84zM399 1165l193 289h229l-237 -289h-185z" />
<glyph unicode="&#xfe;" horiz-adv-x="1124" d="M123 -389v1880h186v-645q106 164 316 164q201 0 316.5 -141t115.5 -377t-115.5 -377.5t-316.5 -141.5q-212 0 -318 164v-526h-184zM309 492q0 -163 80 -257t209 -94q126 0 197 92.5t71 258.5q0 165 -71 257.5t-197 92.5q-129 0 -209 -93.5t-80 -256.5z" />
<glyph unicode="&#xff;" horiz-adv-x="993" d="M31 983h198l267 -731l274 731h193l-418 -1104q-16 -41 -24.5 -61.5t-23 -52t-27 -47.5t-31.5 -37t-39.5 -31t-48.5 -20.5t-62.5 -14.5t-77.5 -4h-170v164h149q83 0 115 26.5t64 112.5l32 84zM180 1317q0 51 36 87t87 36t87 -36t36 -87t-36 -87t-87 -36t-87 36t-36 87z M569 1317q0 51 36 87t87 36t87 -36t36 -87t-36 -87t-87 -36t-87 36t-36 87z" />
<glyph unicode="&#x152;" horiz-adv-x="2252" d="M78 727q0 215 82.5 385.5t238 269.5t359.5 99q305 0 485 -215v188h881v-174h-686v-440h655v-174h-655v-492h696v-174h-891v188q-180 -215 -485 -215q-204 0 -359.5 99t-238 269.5t-82.5 385.5zM276 727q0 -256 132.5 -415.5t349.5 -159.5t349 159.5t132 415.5 q0 255 -132 415.5t-349 160.5t-349.5 -160.5t-132.5 -415.5z" />
<glyph unicode="&#x153;" horiz-adv-x="1798" d="M66 492q0 232 135 375t344 143q120 0 218.5 -50.5t162.5 -142.5q123 191 364 191q204 0 322.5 -134.5t118.5 -381.5v-35h-637q-31 0 -44.5 -13t-13.5 -43q0 -39 13.5 -81t42.5 -83.5t84 -68.5t127 -27q90 0 146 34.5t112 137.5l155 -73q-80 -153 -177 -210t-236 -57 q-125 0 -221.5 50t-155.5 143q-63 -93 -161.5 -143t-219.5 -50q-209 0 -344 143.5t-135 375.5zM256 492q0 -163 79.5 -257t209.5 -94t209.5 94t79.5 257t-79.5 256.5t-209.5 93.5t-209.5 -93.5t-79.5 -256.5zM1032 602h506q-13 117 -77.5 180.5t-166.5 63.5 q-224 0 -262 -244z" />
<glyph unicode="&#x178;" horiz-adv-x="1187" d="M14 1454h211l371 -645l369 645h209l-484 -829v-625h-194v627zM276 1767q0 51 36 87t87 36t87 -36t36 -87t-36 -86.5t-87 -35.5t-87 35.5t-36 86.5zM666 1767q0 51 35.5 87t86.5 36t87 -36t36 -87t-36 -86.5t-87 -35.5t-86.5 35.5t-35.5 86.5z" />
<glyph unicode="&#x2c6;" horiz-adv-x="935" d="M123 1165l217 289h256l217 -289h-188l-156 189l-158 -189h-188z" />
<glyph unicode="&#x2dc;" horiz-adv-x="909" d="M123 1194q0 123 51 178t133 55q53 0 103 -23.5t91.5 -47t73.5 -23.5q35 0 51.5 20.5t16.5 69.5h143q0 -122 -49.5 -177.5t-126.5 -55.5q-50 0 -102 24t-95 48t-73 24q-33 0 -52.5 -25t-19.5 -67h-145z" />
<glyph unicode="&#x2000;" horiz-adv-x="952" />
<glyph unicode="&#x2001;" horiz-adv-x="1905" />
<glyph unicode="&#x2002;" horiz-adv-x="952" />
<glyph unicode="&#x2003;" horiz-adv-x="1905" />
<glyph unicode="&#x2004;" horiz-adv-x="635" />
<glyph unicode="&#x2005;" horiz-adv-x="476" />
<glyph unicode="&#x2006;" horiz-adv-x="317" />
<glyph unicode="&#x2007;" horiz-adv-x="317" />
<glyph unicode="&#x2008;" horiz-adv-x="238" />
<glyph unicode="&#x2009;" horiz-adv-x="381" />
<glyph unicode="&#x200a;" horiz-adv-x="105" />
<glyph unicode="&#x2010;" horiz-adv-x="727" d="M82 434v180h563v-180h-563z" />
<glyph unicode="&#x2011;" horiz-adv-x="727" d="M82 434v180h563v-180h-563z" />
<glyph unicode="&#x2012;" horiz-adv-x="727" d="M82 434v180h563v-180h-563z" />
<glyph unicode="&#x2013;" horiz-adv-x="1116" d="M102 434v180h912v-180h-912z" />
<glyph unicode="&#x2014;" horiz-adv-x="1587" d="M123 434v180h1341v-180h-1341z" />
<glyph unicode="&#x2018;" horiz-adv-x="485" d="M102 1163q0 62 13 112.5t41 91.5t75.5 64t112.5 23h23v-106h-21q-110 0 -119 -121q65 6 110.5 -31.5t45.5 -97.5q0 -56 -38.5 -93.5t-92.5 -37.5q-62 0 -106 49t-44 147z" />
<glyph unicode="&#x2019;" horiz-adv-x="475" d="M102 1335q0 56 38.5 93.5t92.5 37.5q62 0 106 -49t44 -147q0 -62 -13 -112.5t-41 -91.5t-75.5 -64t-112.5 -23h-22v106h20q110 0 119 121q-65 -6 -110.5 31.5t-45.5 97.5z" />
<glyph unicode="&#x201a;" horiz-adv-x="485" d="M102 125q0 56 38.5 93.5t92.5 37.5q62 0 106 -49.5t44 -147.5q0 -83 -22.5 -146t-78.5 -103.5t-141 -40.5h-22v106h20q110 0 119 121q-65 -6 -110.5 31.5t-45.5 97.5z" />
<glyph unicode="&#x201c;" horiz-adv-x="884" d="M102 1163q0 62 13 112.5t41 91.5t75.5 64t112.5 23h23v-106h-21q-110 0 -119 -121q65 6 110.5 -31.5t45.5 -97.5q0 -56 -38.5 -93.5t-92.5 -37.5q-62 0 -106 49t-44 147zM502 1163q0 130 58 210.5t183 80.5h23v-106h-21q-109 0 -118 -121q65 6 110 -31.5t45 -97.5 q0 -56 -38.5 -93.5t-92.5 -37.5q-62 0 -105.5 49t-43.5 147z" />
<glyph unicode="&#x201d;" horiz-adv-x="884" d="M102 1335q0 56 38.5 93.5t92.5 37.5q62 0 106 -49t44 -147q0 -62 -13 -112.5t-41 -91.5t-75.5 -64t-112.5 -23h-22v106h20q110 0 119 121q-65 -6 -110.5 31.5t-45.5 97.5zM502 1335q0 56 38.5 93.5t92.5 37.5q62 0 105.5 -49t43.5 -147q0 -130 -58 -210.5t-183 -80.5h-23 v106h21q109 0 118 121q-65 -6 -110 31.5t-45 97.5z" />
<glyph unicode="&#x201e;" horiz-adv-x="874" d="M102 125q0 56 38.5 93.5t92.5 37.5q62 0 106 -49.5t44 -147.5q0 -83 -22.5 -146t-78.5 -103.5t-141 -40.5h-22v106h20q110 0 119 121q-65 -6 -110.5 31.5t-45.5 97.5zM502 125q0 56 38.5 93.5t92.5 37.5q62 0 105.5 -49t43.5 -148q0 -130 -58 -210t-183 -80h-23v106h21 q109 0 118 121q-65 -6 -110 31.5t-45 97.5z" />
<glyph unicode="&#x2022;" horiz-adv-x="1056" d="M143 598q0 161 112.5 274t272.5 113q159 0 272 -113t113 -274q0 -157 -113.5 -271t-271.5 -114q-159 0 -272 114t-113 271z" />
<glyph unicode="&#x2026;" horiz-adv-x="1425" d="M102 121q0 58 40.5 98.5t99.5 40.5q58 0 98.5 -40t40.5 -99t-40.5 -99t-98.5 -40q-59 0 -99.5 40.5t-40.5 98.5zM573 121q0 58 40.5 98.5t99.5 40.5t99 -40t40 -99t-40 -99t-99 -40t-99.5 40.5t-40.5 98.5zM1044 121q0 58 40.5 98.5t99.5 40.5q58 0 98.5 -40t40.5 -99 t-40.5 -99t-98.5 -40q-59 0 -99.5 40.5t-40.5 98.5z" />
<glyph unicode="&#x202f;" horiz-adv-x="381" />
<glyph unicode="&#x2039;" horiz-adv-x="784" d="M143 598l314 385h184l-311 -385l311 -385h-184z" />
<glyph unicode="&#x203a;" horiz-adv-x="784" d="M143 213l312 385l-312 385h185l313 -385l-313 -385h-185z" />
<glyph unicode="&#x205f;" horiz-adv-x="476" />
<glyph unicode="&#x20ac;" horiz-adv-x="1374" d="M102 481v154h189v80q0 42 2 65h-191v154h211q50 217 188.5 351t348.5 134q149 0 262.5 -55t200.5 -203l-160 -86q-64 97 -133.5 131.5t-163.5 34.5q-133 0 -219 -82.5t-121 -224.5h533v-154h-557q-3 -34 -3 -67v-78h560v-154h-541q33 -152 119.5 -240.5t230.5 -88.5 q96 0 160.5 32.5t138.5 132.5l156 -86q-102 -151 -208.5 -204.5t-252.5 -53.5q-109 0 -202.5 39t-160.5 108t-112.5 160.5t-67.5 200.5h-207z" />
<glyph unicode="&#x2122;" horiz-adv-x="1996" d="M102 1329v125h701v-125h-281v-688h-139v688h-281zM950 641v813h197l280 -653l271 653h196v-813h-139v614l-258 -614h-137l-273 614v-614h-137z" />
<glyph unicode="&#x25fc;" horiz-adv-x="983" d="M0 0v983h983v-983h-983z" />
<glyph unicode="&#xfb03;" horiz-adv-x="1710" d="M51 819v164h166v211q0 150 73.5 223.5t235.5 73.5h181v-164h-166q-74 0 -107 -31t-33 -106v-207h408v211q0 150 73.5 223.5t235.5 73.5h109v-164h-94q-73 0 -105.5 -31t-32.5 -106v-207h592v-983h-186v819h-406v-819h-186v819h-408v-819h-184v819h-166zM1362 1325 q0 54 38 91.5t93 37.5t93 -37.5t38 -91.5t-38 -92.5t-93 -38.5t-93 38.5t-38 92.5z" />
<glyph unicode="&#xfb04;" horiz-adv-x="1710" d="M51 819v164h166v211q0 150 73.5 223.5t235.5 73.5h160v-164h-145q-74 0 -107 -31t-33 -106v-207h408v211q0 150 73.5 223.5t235.5 73.5h109v-164h-94q-73 0 -105.5 -31t-32.5 -106v-207h234v-164h-234v-819h-186v819h-408v-819h-184v819h-166zM1401 0v1491h186v-1491 h-186z" />
</font>
</defs>
</svg>
